<svg viewBox="49.13 163.19 573.73 340.7" fill="white" xmlns="http://www.w3.org/2000/svg"><rect x="49.13" y="163.19" width="573.73" height="340.7" rx="16" fill="#1a1a2e"/><path d="M396 187.5c-15.7 2.4-28.8 4.4-29.2 4.4-2.1.2-.4 2.2 2.9 3.6 4.8 2 7.1 4.1 9.4 8.7 1.8 3.6 1.9 7.8 1.9 113.9v110.2l-2.4 4.2c-1.6 2.6-4.1 5-6.9 6.5l-4.4 2.3-3.9-2c-2.4-1.2-5.1-3.8-6.9-6.8l-3-4.8-.5-68.1c-.5-67.2-.5-68.2-2.7-74-6.6-17.5-21.8-27.3-43.8-28.3-17.1-.9-39.3 4.4-53.6 12.6l-6.6 3.7-5.6-5.2c-11.2-10.4-29.4-13.8-52.3-9.9-7.4 1.3-22.3 5.8-29.6 9-1.4.6-1.8.2-1.8-1.7 0-3.4-1.8-4.8-6.4-4.8-3.4 0-54.5 7.1-61.9 8.6-3.7.8-3.4 2.1 1 3.9 2.1.9 4.8 2.6 6.2 3.8 5.2 4.8 5.1 3.3 5.1 79.8v71.2l-2.5 4.3c-1.8 3.1-3.9 4.9-7.5 6.6-9.8 4.6-8.4 4.8 37.9 4.8 24.7 0 43.2-.4 43.5-.9.4-.5-1.4-1.9-3.9-3.1-5.3-2.6-8.9-6.9-10.4-12.5-.7-2.7-1.1-28.2-1.1-80.1v-76.2l6.3-2.5c19-7.6 44.8-7.7 52.3-.2 5.7 5.7 4.1 12.3-5.8 23.2-3.9 4.3-7.8 9.4-8.7 11.3-1.4 3.1-1.7 11.4-2.1 65-.5 58.2-.6 61.8-2.4 64.5-2.5 4-6.5 7.3-9.8 8-1.6.4-2.8 1.3-2.8 2.1 0 1.2 6.6 1.4 43.5 1.4 42.8 0 47.9-.4 40.8-3.1-4.6-1.7-8.9-5.5-10.9-9.6-1.8-3.6-1.9-7.7-2.4-71.8l-.5-68-2.8-6.5c-4.6-10.6-5-9.5 4.6-14 12.2-5.7 21.9-8 34.2-8 11.5 0 18.9 1.7 22.8 5.4 6.1 5.6 4.6 12.2-5.4 23.2-3.9 4.4-7.9 9.5-8.8 11.4-1.4 3.1-1.7 10.8-2.1 65.1l-.5 61.5-2.7 4.1c-2.4 3.6-7.8 7.3-10.7 7.3-.6 0-1.1.7-1.1 1.5 0 1.3 10.1 1.5 84.9 1.5 49.9 0 85.2-.4 85.5-.9.4-.5-1.4-1.9-3.9-3.1-5.3-2.6-8.9-6.9-10.4-12.5-.7-2.6-1.1-18.7-1.1-45.9v-41.9l2.1 1.9c3.6 3.2 12.3 22.6 22.4 49.8 14.4 38.6 19.1 47.7 26 51 4.9 2.3 72.5 2.4 72.5.1 0-1-1-1.5-2.7-1.5-8.4-.1-18.4-9.6-26.2-25-6.1-11.9-10-21.2-21.6-52-10.7-28.4-15.1-38.2-20.1-45.3l-3.7-5.1 3.5-3c1.8-1.7 9.2-8.4 16.3-14.9 22.7-20.5 36.2-29.4 48.6-31.8 3.2-.6 5.9-1.6 5.9-2 0-.5-17.8-.9-39.5-.9s-39.5.4-39.5.8 2.1 1.4 4.7 2.1c7 1.8 13.7 9 15.3 16.4 1.5 6.7.2 13.4-3.7 18.5-7.3 9.6-31.8 28.5-45 34.8-3 1.4-7.6 2.8-10.4 3.1l-4.9.6v-76c0-57.7-.3-76.2-1.2-77.1-1.9-1.9-9.4-1.3-39.8 3.3"></path><path d="M490.4 185.8c-1.9.3-2.1.8-1.7 4.5.2 2.3.6 5 .8 6 .2 1.2-1.1.6-4.4-2.3-2.7-2.1-5.4-4.6-6.1-5.5-1.2-1.4-4.1-2-5.1-1-.6.6 1.7 21.4 2.4 22.1.3.3 1.5.3 2.7-.1 2.1-.7 2.2-1.1 1.6-6.9l-.7-6.1 5.8 5.7c6 5.9 10.3 7.6 10.3 4 0-3.9-2.2-19.7-2.8-20.3-.4-.3-1.7-.3-2.8-.1M517 195.7c-3 3.6-6.5 7.8-7.8 9.4l-2.3 2.8 2.6.7c1.8.4 3.2.1 4.5-1.1 1.7-1.6 2.5-1.6 6.5-.5 3.7 1 4.5 1.7 4.5 3.7 0 1.6.8 2.7 2.6 3.4 1.5.5 2.8.8 3 .6.6-.6-2.7-23.1-3.5-23.8-.3-.4-1.5-.9-2.6-1.2-1.5-.4-3.3.9-7.5 6m6.6 7.1c-.3.3-1.5.1-2.7-.4l-2-.9 2.3-3 2.3-3 .3 3.4c.2 1.8.1 3.5-.2 3.9M547.1 212.3c-5.7 8.4-6.1 9.2-4.5 10.4 1 .7 2.1 1.3 2.4 1.3.4 0 3.4-4 6.8-8.9 6.2-8.9 6.3-9.3 2.6-11.4-.6-.4-3.8 3.3-7.3 8.6M566 226.1c-4.1 3.3-7.9 6.5-8.4 7s.9 3.1 3.4 6.4c5.1 6.6 5.7 7 7.6 5.5 1.2-1.1.9-1.9-2.1-5.5l-3.4-4.2 6.9-5.6c6.9-5.4 7-5.5 5.3-7.6l-1.8-2.1zM586.2 251c-2.8 1.2-4 4.4-3.4 9.6.2 2.7-.1 4.4-.9 4.9-1.8 1.2-3.9-2.3-3.9-6.8 0-3.4-.3-3.8-2.2-3.5-2.8.4-3.3 2.4-1.8 7.7 3.1 11.8 15.3 10.5 13.6-1.5-.4-3.5-.2-4.6 1-5.1 2.1-.8 3.4 1.3 3.4 5.4 0 2.8.3 3.3 2.5 3.3 2 0 2.5-.5 2.5-2.5 0-3.8-2.5-9-5.1-10.9-2.6-1.8-2.6-1.8-5.7-.6M577.6 309.8c-2.4 8.7-2.1 12.8.9 14.8 2.1 1.4 3 1.5 5.2.5 2.1-1 2.9-.9 4.3.4 2.2 2 5.3 1.9 7.4-.4 2.4-2.6 5.8-15.1 4.3-15.6-.7-.2-4.8-1.3-9.2-2.5s-8.7-2.3-9.6-2.6c-1.2-.3-2 .9-3.3 5.4m8.1 4.9c-.7 4.3-2 5.8-4.2 4.9-1.3-.5-1.5-1.3-1-3.8 1-4.4 1.3-4.8 3.7-4.8 1.8 0 2 .4 1.5 3.7m8.2-.8c1.8 1.2.1 6.5-2.2 6.9-2.3.5-3-1.8-1.8-5.1 1.1-2.9 1.8-3.2 4-1.8M562.9 342.6c-1.1 1.4-.9 2 1.9 4.3 2 1.6 4.3 5.3 6.1 9.4 1.5 3.8 3.2 6.9 3.6 7s1.3-.6 1.9-1.5c.8-1.3.5-2.9-1.1-6.9l-2.2-5.1 5.5.7c4.7.6 5.8.4 6.9-1.2.8-1 1.5-2.1 1.5-2.4 0-.4-3.6-1-8-1.4-5.5-.5-8.7-1.3-10.4-2.6-2.9-2.3-4-2.4-5.7-.3M69.2 477.7c.3 6 2.3 8.3 3.4 3.9l.6-2.6h526.7l.3 2.2c.6 4.3 2.3 1.8 2.6-3.7.2-4.4 0-5.5-1.3-5.5-.8 0-1.5.9-1.5 2 0 2-.7 2-263.4 2-262.5 0-263.4 0-263.9-2-.3-1.1-1.3-2-2.2-2-1.3 0-1.5 1-1.3 5.7"></path></svg>