<svg role="graphics-document" title="skysoft_logo_gray_vector" id="b" xmlns="http://www.w3.org/2000/svg" version="1.1" viewBox="-40 0 421 201" preserveAspectRatio="xMidYMid meet" width="1280" height="754">
  <defs>
    <style>
      .cls-1, .cls-2, .cls-3, .cls-4, .cls-5 {
        stroke-width: 0px;
      }

      .cls-1, .cls-3 {
        fill: #c4c5c5;
      }

      .cls-1, .cls-4 {
        fill-rule: evenodd;
      }

      .cls-2 {
        fill: none;
      }

      .cls-4, .cls-5 {
        fill: #025699;
      }
    </style>
  </defs>
  <g id="c">
    <rect class="cls-2" y="0" width="341" height="201"></rect>
    <path class="cls-4" d="M162.4,142.5h1.5l.9-2.7h4.4l.8,2.7h1.6l-3.7-11.4h-1.9l-3.6,11.4h0ZM168.8,138.5h-3.6l1.8-6.1h0l1.8,6.1h0Z"></path>
    <polygon class="cls-5" points="226 131.1 226 132.4 229 132.4 229 142.5 230.5 142.5 230.5 132.4 233.5 132.4 233.5 131.1 226 131.1 226 131.1"></polygon>
    <polygon class="cls-5" points="289.3 132.4 289.3 132.4 292.4 142.5 293.8 142.5 297 132.4 297 132.4 297 142.5 298.5 142.5 298.5 131.1 296.1 131.1 293.2 140.6 293.1 140.6 290.3 131.1 287.9 131.1 287.9 142.5 289.3 142.5 289.3 132.4 289.3 132.4"></polygon>
    <path class="cls-3" d="M43.2,112.7c0-4.1-2.2-7.5-5.3-9.3l-27.7-16c-.3-.3-.6-.6-.6-1,0-.7.6-1.3,1.2-1.3h27.5v-9.5H10.9c-6,0-10.9,4.9-10.9,10.8s2.2,7.4,5.3,9.2l27.6,16c.4.2.7.6.7,1,0,.6-.6,1.1-1.2,1.1H0v9.7h32.4c5.9,0,10.7-4.8,10.7-10.8h.1Z"></path>
    <path class="cls-3" d="M139,131.7v-56.2h-9.7v38.3h-22.7c-.7,0-1.2-.5-1.2-1.2v-37.1h-9.6v37.1c0,6,4.9,10.8,10.8,10.8h22.7v8.4c0,.6-.5,1.1-1.2,1.1h-22.7v9.7h22.7c6,0,10.8-4.9,10.8-10.9h.1Z"></path>
    <path class="cls-3" d="M186.9,112.7c0-4.1-2.1-7.5-5.3-9.3l-27.7-16c-.3-.3-.6-.6-.6-1,0-.7.6-1.3,1.2-1.3h27.5v-9.5h-27.5c-6,0-10.9,4.9-10.9,10.8s2.1,7.4,5.3,9.2l27.6,16c.4.2.7.6.7,1-.1.6-.6,1.1-1.2,1.1h-32.4v9.7h32.4c5.9,0,10.7-4.8,10.7-10.8h.1Z"></path>
    <path class="cls-1" d="M233.7,112.7v-26.3c0-6-4.8-10.8-10.8-10.8h-21.6c-6,0-10.9,4.9-10.9,10.8h0c0,0,0,26.3,0,26.3,0,6,4.8,10.8,10.9,10.8h21.5c6,0,10.8-4.8,10.8-10.8h.1,0ZM223.9,112.7c0,.5-.5,1-1.2,1h-21.5c-.7,0-1.2-.4-1.2-1v-26.3c0-.7.5-1.3,1.2-1.3h21.5c.7,0,1.2.6,1.2,1.3v26.3h0Z"></path>
    <path class="cls-3" d="M280.5,65.8v-9.5h-22.8c-6,0-10.9,4.8-10.9,10.7v8.5h-9.6v9.6h9.6v38.3h9.7v-38.3h19v-9.6h-19v-8.5c0-.7.5-1.2,1.2-1.2h22.8Z"></path>
    <path class="cls-3" d="M46.8,60.7c0-2.7,2.2-4.8,4.8-4.8s4.8,2.2,4.8,4.8v33.9l19.3-19.2h13.6l-22.2,22.2,25.7,25.8h-13.6l-22.8-22.8v22.8h-9.6v-62.7h0Z"></path>
    <path class="cls-3" d="M315.2,85.1h-16.7v38.3h-9.7v-38.3h-9.5v-9.6h9.5v-14.7c0-2.7,2.2-4.8,4.9-4.8s4.9,2.2,4.9,4.8v14.7h16.7c2.6,0,4.8,2.1,4.8,4.8s-2.1,4.8-4.8,4.8h0Z"></path>
  </g>
</svg>